<?xml version="1.0" encoding="utf-8"?>
<!-- Generator: Adobe Illustrator 22.0.0, SVG Export Plug-In . SVG Version: 6.00 Build 0)  -->
<svg version="1.1" id="Layer_1" xmlns="http://www.w3.org/2000/svg" xmlns:xlink="http://www.w3.org/1999/xlink" x="0px" y="0px"
	 viewBox="0 0 512 512" style="enable-background:new 0 0 512 512;" xml:space="preserve">
<style type="text/css">
	.st0{fill:#754C24;}
	.st1{fill:#8C6D46;}
	.st2{fill:#663C1F;}
	.st3{fill:#231F20;}
	.st4{fill:#FFFFFF;}
	.st5{fill:#E0A838;}
	.st6{fill:#4C2E17;}
	.st7{fill:#F2C249;}
	.st8{fill:#D38D2A;}
</style>
<circle class="st0" cx="256" cy="256" r="256"/>
<path class="st1" d="M480.5,283.3c-25-21.2-54.1-35.4-85.6-41.3c-0.5-1.2-1-2.4-1.5-3.6c-11.3-24.7-32.2-52.3-33.6-54.4
	c-2.3-3.4-6.5-3.8-9.4-0.9c-2.9,2.9-3.8,7-1.5,10.4c0.5,0.8,19.5,29.1,30.2,52.3c-2.1,0.2-4.3,0.4-6.4,0.7
	c-31.5,4.1-60.3,15.9-84.3,33.8c-23.9-17.9-52.8-29.7-84.3-33.8c-2.1-0.3-4.3-0.5-6.4-0.7c10.7-23.2,29.7-51.5,30.2-52.3
	c2.3-3.4,1.4-8.5-1.5-10.4c-2.9-2.9-7.1-2.5-9.4,0.9c-1.4,2.1-22.3,29.7-33.6,54.4c-0.5,1.2-1,2.4-1.5,3.6
	c-31.5,5.9-60.6,20.1-85.6,41.3C12.2,255.9,0,256,0,256s12.2-0.1,31.5,27.3c25,21.2,54.1,35.4,85.6,41.3
	c0.5,1.2,1,2.4,1.5,3.6c11.3,24.7,32.2,52.3,33.6,54.4c2.3,3.4,6.5,3.8,9.4,0.9c2.9-2.9,3.8-7,1.5-10.4
	c-0.5-0.8-19.5-29.1-30.2-52.3c2.1-0.2,4.3-0.4,6.4-0.7c31.5-4.1,60.3-15.9,84.3-33.8c23.9,17.9,52.8,29.7,84.3,33.8
	c2.1,0.3,4.3,0.5,6.4,0.7c-10.7,23.2-29.7,51.5-30.2,52.3c-2.3,3.4-1.4,8.5,1.5,10.4c2.9,2.9,7.1,2.5,9.4-0.9
	c1.4-2.1,22.3-29.7,33.6-54.4c0.5-1.2,1,2.4,1.5,3.6c31.5-5.9,60.6-20.1,85.6-41.3C500,255.9,512,256,512,256
	S500,255.9,480.5,283.3z"/>
<path class="st2" d="M349.4,241.9c-0.5-1.2-1-2.4-1.5-3.6c-11.3-24.7-32.2-52.3-33.6-54.4c-2.3-3.4-6.5-3.8-9.4-0.9
	c-2.9,2.9-3.8,7-1.5,10.4c0.5,0.8,19.5,29.1,30.2,52.3c-2.1,0.2-4.3,0.4-6.4,0.7c-31.5,4.1-60.3,15.9-84.3,33.8V128
	c0-48.6-39.4-88-88-88s-88,39.4-88,88v152.9c-23.9-17.9-52.8-29.7-84.3-33.8c-2.1-0.3-4.3-0.5-6.4-0.7
	c10.7-23.2,29.7-51.5,30.2-52.3c2.3-3.4,1.4-8.5-1.5-10.4c-2.9-2.9-7.1-2.5-9.4,0.9c-1.4,2.1-22.3,29.7-33.6,54.4
	c-0.5,1.2-1,2.4-1.5,3.6C93.1,247.8,64,262,38.9,283.3c-1.2-16.5-1.9-33.3-1.9-50.3c0-123.7,100.3-224,224-224
	s224,100.3,224,224c0,17-1.9,33.8-5.5,49.8C403.5,262,374.4,247.8,349.4,241.9z"/>
<path class="st3" d="M256,120c-13.2,0-24,10.8-24,24s10.8,24,24,24s24-10.8,24-24S269.2,120,256,120z"/>
<path class="st4" d="M184,184c-13.2,0-24,10.8-24,24s10.8,24,24,24s24-10.8,24-24S197.2,184,184,184z"/>
<path class="st4" d="M328,184c-13.2,0-24,10.8-24,24s10.8,24,24,24s24-10.8,24-24S341.2,184,328,184z"/>
<path class="st5" d="M120,248c-13.2,0-24,10.8-24,24s10.8,24,24,24s24-10.8,24-24S133.2,248,120,248z"/>
<path class="st5" d="M392,248c-13.2,0-24,10.8-24,24s10.8,24,24,24s24-10.8,24-24S405.2,248,392,248z"/>
<path class="st6" d="M256,280c-22.1,0-40,17.9-40,40s17.9,40,40,40s40-17.9,40-40S278.1,280,256,280z"/>
<path class="st7" d="M256,328c-22.1,0-40,17.9-40,40s17.9,40,40,40s40-17.9,40-40S278.1,328,256,328z"/>
<path class="st8" d="M256,360c-22.1,0-40,17.9-40,40s17.9,40,40,40s40-17.9,40-40S278.1,360,256,360z"/>
<path class="st3" d="M256,408c-22.1,0-40,17.9-40,40s17.9,40,40,40s40-17.9,40-40S278.1,408,256,408z"/>
</svg>
