<svg xmlns="http://www.w3.org/2000/svg" height="24" viewBox="0 0 24 24" width="24" focusable="false" style="pointer-events: none; display: block; width: 100%; height: 100%;"><path d="M15 5.63 20.66 12 15 18.37V15v-1h-1c-3.96 0-7.14 1.28-9 3.22.94-3.21 3.31-5.71 6-6.5 1.06-.31 2.37-.49 4-.49h1V9v-.63zM14 3v6H6c-3.86 0-7 3.14-7 7 0 1.93.78 3.68 2.03 4.93.53.53 1.26.88 2.07 1.04C5.58 21.61 8.65 22 12 22h2v-6h-2c-1.93 0-3.68-.78-4.93-2.03-.53-.53-.88-1.26-1.04-2.07-.39-1.92-.39-3.95 0-5.85C4.59 9.39 7.34 8 10 8h4V3z"></path></svg>